<svg fill="#000" width="800" height="800" viewBox="144 144 512 512" xmlns="http://www.w3.org/2000/svg"><g><path d="m607.82 420.46c14.168-14.168 14.168-34.637.0-48.805s-36.211-14.168-50.383.0l-151.14 147.99-168.46-163.74c-14.168-14.168-36.211-14.168-50.383.0-6.2969 6.2969-11.02 15.742-11.02 25.191.0 9.4453 3.1484 17.32 11.02 25.191l218.84 212.54z"/><path d="m607.82 252c14.168-14.168 14.168-34.637.0-48.805s-36.211-14.168-50.383.0l-151.14 147.99-168.46-163.74c-14.168-14.168-36.211-14.168-50.383.0-6.2969 6.2969-11.02 15.746-11.02 23.617.0 9.4453 3.1484 17.32 11.02 25.191l218.84 212.54z"/></g></svg>